Coordinates
version=1
nRows=22
nColumns=24
inDegrees=yes

Units are S.I. units (second, meters, Newtons, ...)
Angles are in degrees.

endheader
time	pelvis_tilt	pelvis_list	pelvis_rotation	pelvis_tx	pelvis_ty	pelvis_tz	hip_flexion_r	hip_adduction_r	hip_rotation_r	knee_angle_r	ankle_angle_r	subtalar_angle_r	mtp_angle_r	hip_flexion_l	hip_adduction_l	hip_rotation_l	knee_angle_l	ankle_angle_l	subtalar_angle_l	mtp_angle_l	lumbar_extension	lumbar_bending	lumbar_rotation
      4.24500000	     -9.45877421	      7.19275143	    357.38311717	      0.67401150	      1.36854734	     -1.06699908	     10.91092108	     -6.28639376	      4.84204223	    -41.53533645	     -1.01913859	     -7.12898782	     25.06893137	     27.21720881	      8.68052163	     -2.15761910	    -11.30868356	     -9.00268543	     -3.16849096	     26.94494647	     -5.84180648	     -6.34886104	     11.56017486
      4.25000000	     -9.31777863	      7.23354197	    357.47594179	      0.67892523	      1.36918756	     -1.06801291	     11.40340553	     -6.45708312	      4.67694015	    -42.82490830	     -1.91738479	     -7.02575752	     26.51229964	     26.85543974	      8.88621166	     -1.97353165	    -11.49431773	     -8.69317355	     -3.25736565	     26.62437725	     -5.95842760	     -6.36072523	     11.33900230
      4.25500000	     -9.14018179	      7.24237537	    357.62689419	      0.68389607	      1.36989400	     -1.06913648	     11.81380428	     -6.62324375	      4.43568412	    -44.02714917	     -2.63882021	     -6.76147149	     27.75378433	     26.41548866	      9.09357854	     -1.71979904	    -11.62277280	     -8.39624742	     -3.33389568	     26.38314443	     -6.10605147	     -6.33178201	     11.08937751
      4.26000000	     -9.00332920	      7.26489773	    357.78410213	      0.68889568	      1.37057159	     -1.07021082	     12.25961223	     -6.79756311	      4.20670738	    -45.17394354	     -3.26239417	     -6.61974798	     28.95243430	     25.99340022	      9.30397349	     -1.51098103	    -11.70494477	     -8.11218683	     -3.34440182	     26.16408682	     -6.19345029	     -6.32688241	     10.82477792
      4.26500000	     -8.84245068	      7.24112085	    357.93969984	      0.69388481	      1.37131572	     -1.07129782	     12.65428200	     -6.92279650	      3.98748684	    -46.23719198	     -3.71776673	     -6.35705084	     29.88899399	     25.52097790	      9.46568531	     -1.30245133	    -11.74953631	     -7.81137845	     -3.34171982	     26.02120698	     -6.30742143	     -6.24802902	     10.52768082
      4.27000000	     -8.69192975	      7.25777266	    358.10293677	      0.69888151	      1.37202660	     -1.07231300	     13.05497353	     -7.08842183	      3.76944425	    -47.26309441	     -3.94101772	     -6.10369326	     30.52198203	     25.03874402	      9.65766905	     -1.12842372	    -11.74832873	     -7.55305815	     -3.27199906	     25.96508160	     -6.40164409	     -6.22853820	     10.19731330
      4.27500000	     -8.55200255	      7.19534003	    358.24507034	      0.70381963	      1.37280535	     -1.07335978	     13.44704128	     -7.16073360	      3.57553980	    -48.16967287	     -4.25688791	     -6.05657139	     31.55069316	     24.56689935	      9.76110273	     -0.95189993	    -11.75996077	     -7.22612459	     -3.22553091	     25.75207758	     -6.47610129	     -6.10998375	      9.97402253
      4.28000000	     -8.42584038	      7.17052151	    358.38927463	      0.70873241	      1.37353556	     -1.07433349	     13.85418864	     -7.27126600	      3.37857031	    -49.05699461	     -4.23517579	     -5.85826409	     31.91429448	     24.10491580	      9.88826175	     -0.81791061	    -11.74754145	     -6.94004020	     -3.10964621	     25.76256805	     -6.53300855	     -6.04421875	      9.72836825
      4.28500000	     -8.30498882	      7.10669056	    358.51153554	      0.71355100	      1.37430175	     -1.07524496	     14.26207706	     -7.31987363	      3.22951371	    -49.86570844	     -4.16792402	     -5.68714133	     32.36607464	     23.65214612	      9.95868602	     -0.67752809	    -11.74002467	     -6.64540731	     -2.97066414	     25.70940489	     -6.60016288	     -5.93278759	      9.46663630
      4.29000000	     -8.19631071	      7.03239209	    358.60737418	      0.71830332	      1.37506554	     -1.07611517	     14.68466743	     -7.34707350	      3.10053241	    -50.60289446	     -4.09449244	     -5.68841065	     32.95092461	     23.22349137	     10.00228233	     -0.57618159	    -11.75390708	     -6.29236799	     -2.78608384	     25.48229395	     -6.64756440	     -5.81487338	      9.29049488
      4.29500000	     -8.08979549	      6.97445749	    358.67806529	      0.72302237	      1.37582572	     -1.07689468	     15.11091579	     -7.37812145	      3.00324605	    -51.29714117	     -3.83390788	     -5.57430386	     33.12469764	     22.79144859	     10.04308676	     -0.49972150	    -11.74047820	     -6.00777010	     -2.63679186	     25.50116751	     -6.69148745	     -5.71341729	      9.08951828
      4.30000000	     -7.99601300	      6.90201730	    358.73307663	      0.72767457	      1.37659113	     -1.07763233	     15.54821252	     -7.38267170	      2.92336468	    -51.92414862	     -3.52057024	     -5.49516927	     33.27565011	     22.38522901	     10.05730984	     -0.43435679	    -11.74790390	     -5.69353172	     -2.45087379	     25.46845960	     -6.72573903	     -5.59618740	      8.91338631
      4.30500000	     -7.93041359	      6.82748847	    358.76627827	      0.73226118	      1.37732776	     -1.07830833	     16.02159872	     -7.36999456	      2.87119018	    -52.49868799	     -3.15986394	     -5.44670219	     33.36627041	     22.02223332	     10.05410629	     -0.39214603	    -11.77262783	     -5.36447388	     -2.24116496	     25.39121391	     -6.73188237	     -5.47653691	      8.75650449
      4.31000000	     -7.85068500	      6.73450615	    358.78072467	      0.73676095	      1.37808341	     -1.07893320	     16.47793857	     -7.32411881	      2.83504881	    -53.00913907	     -2.74607270	     -5.41771029	     33.33338983	     21.65566513	     10.02232045	     -0.35685364	    -11.81769133	     -5.00854604	     -1.98947306	     25.18635599	     -6.76465345	     -5.34320876	      8.64773293
      4.31500000	     -7.76304855	      6.66315444	    358.78002080	      0.74126619	      1.37884591	     -1.07953500	     16.91978195	     -7.29930823	      2.80073999	    -53.45296385	     -2.34329147	     -5.49815186	     33.33492752	     21.26818402	     10.01096051	     -0.31133946	    -11.82790994	     -4.73287011	     -1.93390695	     25.17627062	     -6.79193055	     -5.23878134	      8.57934902
      4.32000000	     -7.71805601	      6.58158069	    358.78066626	      0.74569671	      1.37955613	     -1.08006217	     17.41015442	     -7.24875244	      2.79075663	    -53.85421215	     -1.84421108	     -5.37918279	     33.18897388	     20.94091896	      9.97438179	     -0.26874205	    -11.86374282	     -4.37992693	     -1.62153057	     25.05157478	     -6.79708934	     -5.10813456	      8.40476485
      4.32500000	     -7.66725626	      6.49421270	    358.76564519	      0.75008623	      1.38027370	     -1.08057236	     17.89006561	     -7.18344858	      2.78247565	    -54.19483256	     -1.34787728	     -5.35110651	     32.85579190	     20.60916589	      9.93112508	     -0.22767560	    -11.90224869	     -4.03187193	     -1.40664948	     24.80976740	     -6.80328872	     -4.98549207	      8.32785538
      4.33000000	     -7.58640224	      6.40084080	    358.75100893	      0.75445936	      1.38102591	     -1.08107609	     18.32219896	     -7.11345228	      2.76117008	    -54.46115007	     -0.84933021	     -5.32467074	     32.55088137	     20.23138378	      9.88510622	     -0.15612616	    -11.91072839	     -3.74727469	     -1.27986647	     24.63459804	     -6.84447433	     -4.85392218	      8.25645989
      4.33500000	     -7.55400533	      6.30362263	    358.73820626	      0.75880509	      1.38172660	     -1.08155831	     18.80341232	     -7.02895628	      2.74854686	    -54.67297517	     -0.36836104	     -5.32444236	     32.24025572	     19.90767465	      9.83203478	     -0.07820635	    -11.91597117	     -3.48829621	     -1.19010311	     24.49964615	     -6.83336068	     -4.71727931	      8.19103990
      4.34000000	     -7.50130683	      6.20223784	    358.73448170	      0.76314739	      1.38243516	     -1.08204420	     19.24673237	     -6.94586582	      2.71320737	    -54.81910296	      0.12741604	     -5.28210861	     31.89198963	     19.54975205	      9.78082937	      0.02423326	    -11.89852557	     -3.25550796	     -1.13825794	     24.35431619	     -6.84507849	     -4.57608523	      8.12169191
      4.34500000	     -7.41224802	      6.10140460	    358.72588175	      0.76746804	      1.38317759	     -1.08250124	     19.63879404	     -6.85963337	      2.67597641	    -54.89807991	      0.59793631	     -5.25586851	     31.53312237	     19.13774369	      9.72948009	      0.13599500	    -11.84906895	     -3.05799290	     -1.12980393	     24.22319611	     -6.90468165	     -4.43525823	      8.05710010
      4.35000000	     -7.37629663	      6.00914938	    358.73370724	      0.77183369	      1.38385136	     -1.08296079	     20.07534117	     -6.78426766	      2.62410578	    -54.92682972	      1.07789079	     -5.19669716	     31.06277151	     18.77245981	      9.68975829	      0.24702442	    -11.78099147	     -2.89410804	     -1.12813437	     24.05971020	     -6.88840852	     -4.30522778	      7.98762247
